<svg xmlns="http://www.w3.org/2000/svg" xmlns:xlink="http://www.w3.org/1999/xlink" version="1.1" width="6.458191812038422" height="6.451148450374603" viewBox="0.5325525104999542 0.27807095646858215 6.458191812038422 6.451148450374603">
  <!-- Exported by Scratch - http://scratch.mit.edu/ -->
  <g id="L_Eye">
    <path id="Inner_Eye_1_" fill="#FFFFFF" d="M 4.8272 3.2723 C 4.7182 2.7736 4.2735 2.4122 3.7705 2.4122 C 3.6906 2.4122 3.6117 2.4216 3.5335 2.4379 C 3.2442 2.4997 3.0022 2.6697 2.8434 2.9135 C 2.6871 3.1556 2.6365 3.4449 2.7 3.7316 C 2.8219 4.3033 3.4013 4.693 3.9911 4.5643 C 4.5783 4.4381 4.9508 3.8586 4.8272 3.2723 L 4.8272 3.2723 Z " stroke-width="0.8584379553794861"/>
    <path id="Outer_Eye_1_" fill="#231F20" d="M 6.4994 2.9135 C 6.1784 1.4335 4.6375 0.4463 3.1678 0.7683 C 2.4365 0.9271 1.8107 1.3606 1.4046 1.9898 C 1.0003 2.6156 0.8672 3.3642 1.0286 4.0947 C 1.2999 5.3703 2.4493 6.3 3.7593 6.3 C 3.9576 6.3 4.1559 6.2786 4.3516 6.2365 C 5.8599 5.9094 6.8214 4.4192 6.4994 2.9135 L 6.4994 2.9135 Z M 2.7 3.7324 C 2.6365 3.4457 2.6871 3.1564 2.8434 2.9144 C 3.0022 2.6697 3.2442 2.5006 3.5335 2.4388 C 3.6125 2.4225 3.6915 2.413 3.7705 2.413 C 4.2744 2.413 4.7182 2.7744 4.8272 3.2732 C 4.9508 3.8595 4.5783 4.4389 3.9902 4.5651 C 3.4013 4.693 2.821 4.3042 2.7 3.7324 L 2.7 3.7324 Z " stroke-width="0.8584379553794861"/>
  </g>
</svg>