<svg version="1.1" width="175" height="228" viewBox="-1 -1 175 228" xmlns="http://www.w3.org/2000/svg" xmlns:xlink="http://www.w3.org/1999/xlink">
  <!-- Exported by Scratch - http://scratch.mit.edu/ -->
  <g id="widget" transform="matrix(0.4830172061920166, 0, 0, 0.4830172061920166, -30.4, -17)">
    <path id="ID0.3485779380425811" fill="#c5e0dc" d="M -25.233 71.083 L -25.233 71.083 C -25.233 71.289 -25.233 71.289 -25.233 71.083 L -25.233 89.577 C -25.233 94.097 -21.534 97.590 -17.219 97.590 C -12.699 97.590 -9.206 94.097 -9.206 89.577 L -9.206 79.097 C -9.206 74.577 -5.713 71.083 -1.192 71.083 C 3.329 71.083 6.822 74.577 6.822 79.097 L 6.822 89.782 C 6.822 94.303 10.520 97.796 14.835 97.796 C 19.356 97.796 22.849 94.303 22.849 89.782 L 22.849 79.508 C 22.849 74.987 26.342 71.494 30.863 71.494 C 35.383 71.494 38.877 74.987 38.877 79.508 L 38.877 89.987 C 38.877 94.508 42.575 98.001 46.890 98.001 C 51.411 98.001 54.904 94.508 54.904 89.987 L 54.904 79.508 C 54.904 74.987 58.397 71.494 62.918 71.494 C 67.438 71.494 70.931 74.987 70.931 79.508 L 70.931 89.987 C 70.931 94.508 74.630 98.001 78.945 98.001 C 83.466 98.001 86.959 94.508 86.959 89.987 L 86.959 71.289 L 86.753 71.289 C 86.753 71.289 86.753 71.289 86.753 71.083 L 86.959 71.083 L 86.959 38.207 L 86.959 20.741 L 86.959 20.741 L 86.959 -51.382 C 87.164 -82.204 61.685 -107.478 30.863 -107.478 C 0.041 -107.478 -25.233 -82.204 -25.233 -51.382 L -25.233 27.316 L -25.233 27.316 L -25.233 38.207 L -25.233 71.083 L -25.233 71.083 Z " transform="matrix(1, 0, 0, 1, 150, 150)"/>
    <path id="ID0.8986161630600691" fill="#0a3540" d="M 38.416 -52.821 L -5.557 -52.821 C -7.406 -52.821 -9.050 -51.177 -9.050 -49.328 C -9.050 -36.382 2.457 -25.903 16.430 -25.903 C 30.402 -25.903 41.909 -36.382 41.909 -49.328 C 41.909 -51.177 40.265 -52.821 38.416 -52.821 Z " transform="matrix(1, 0, 0, 1, 150, 150)"/>
    <path id="ID0.1841134000569582" fill="#0a3540" d="M 47.457 -64.328 C 47.457 -60.629 44.580 -57.752 40.882 -57.752 C 37.183 -57.752 34.306 -60.629 34.306 -64.328 C 34.306 -68.026 37.183 -70.903 40.882 -70.903 C 44.580 -70.903 47.457 -68.026 47.457 -64.328 Z " transform="matrix(1, 0, 0, 1, 150, 150)"/>
    <path id="ID0.2554524503648281" fill="#0a3540" d="M -1.653 -64.328 C -1.653 -60.629 -4.529 -57.752 -8.228 -57.752 C -11.927 -57.752 -14.803 -60.629 -14.803 -64.328 C -14.803 -68.026 -11.927 -70.903 -8.228 -70.903 C -4.529 -70.903 -1.653 -68.026 -1.653 -64.328 Z " transform="matrix(1, 0, 0, 1, 150, 150)"/>
    <path id="ID0.24956722231581807" fill="#f7f9fe" d="M 17.868 -52.821 L 27.526 -52.821 L 27.526 -48.095 C 27.526 -45.424 25.471 -43.369 22.800 -43.369 L 22.800 -43.369 C 20.128 -43.369 18.073 -45.424 18.073 -48.095 L 18.073 -52.821 L 17.868 -52.821 Z " transform="matrix(1, 0, 0, 1, 150, 150)"/>
    <path id="ID0.5093074715696275" fill="#dce8eb" d="M 17.868 -52.821 L 27.526 -52.821 L 27.526 -49.739 L 17.868 -49.739 L 17.868 -52.821 Z " transform="matrix(1, 0, 0, 1, 150, 150)"/>
    <path id="ID0.07233386673033237" fill="#0a3540" d="M -72.267 -113.349 C -72.267 -105.375 -74.131 -101.180 -75.777 -97.478 C -77.272 -94.114 -78.564 -91.209 -78.564 -85.017 C -78.564 -78.824 -77.272 -75.919 -75.777 -72.556 C -74.131 -68.854 -72.267 -64.658 -72.267 -56.684 C -72.267 -48.709 -74.131 -44.513 -75.777 -40.809 C -77.272 -37.446 -78.564 -34.540 -78.564 -28.347 C -78.564 -22.154 -77.272 -19.248 -75.777 -15.884 C -74.131 -12.181 -72.267 -7.985 -72.267 -0.010 C -72.267 7.965 -74.131 12.161 -75.777 15.864 C -77.272 19.228 -78.564 22.133 -78.564 28.327 C -78.564 34.521 -77.272 37.426 -75.777 40.790 C -74.131 44.493 -72.267 48.689 -72.267 56.664 C -72.267 64.641 -74.131 68.838 -75.777 72.540 C -77.272 75.906 -78.564 78.812 -78.564 85.006 C -78.564 91.201 -77.272 94.107 -75.777 97.473 C -74.131 101.175 -72.267 105.372 -72.267 113.349 L -80.663 113.349 C -80.663 107.153 -81.954 104.247 -83.450 100.881 C -85.095 97.179 -86.960 92.982 -86.960 85.006 C -86.960 77.030 -85.095 72.833 -83.450 69.131 C -81.954 65.765 -80.663 62.860 -80.663 56.664 C -80.663 50.470 -81.954 47.565 -83.450 44.201 C -85.095 40.498 -86.960 36.302 -86.960 28.327 C -86.960 20.352 -85.095 16.156 -83.450 12.453 C -81.954 9.089 -80.663 6.183 -80.663 -0.010 C -80.663 -6.204 -81.954 -9.110 -83.450 -12.473 C -85.095 -16.176 -86.960 -20.372 -86.960 -28.347 C -86.960 -36.322 -85.095 -40.518 -83.450 -44.220 C -81.954 -47.584 -80.663 -50.490 -80.663 -56.684 C -80.663 -62.876 -81.954 -65.781 -83.450 -69.145 C -85.095 -72.847 -86.960 -77.043 -86.960 -85.017 C -86.960 -92.992 -85.095 -97.187 -83.450 -100.889 C -81.954 -104.253 -80.663 -107.157 -80.663 -113.349 L -72.267 -113.349 Z " transform="matrix(1, 0, 0, 1, 150, 150)"/>
  </g>
</svg>